<svg width="75" height="71" viewBox="0 0 75 71" fill="none" xmlns="http://www.w3.org/2000/svg">
<rect width="75" height="71" rx="35.5" fill="url(#paint0_linear_2320_886)"/>
<path d="M36.3895 51.4737C33.6105 51.4737 31.1316 50.8579 28.9526 49.6263C26.8053 48.3947 25.1316 46.5789 23.9316 44.1789C22.7316 41.7789 22.1316 38.8579 22.1316 35.4158C22.1316 32.0368 22.7632 29.1474 24.0263 26.7474C25.2895 24.3474 27.0895 22.5 29.4263 21.2053C31.7947 19.9105 34.5737 19.2632 37.7632 19.2632C41.3 19.2632 44.1579 19.9105 46.3368 21.2053C48.5158 22.4684 50.2053 24.4895 51.4053 27.2684L43.8737 30.2526C43.4632 28.6421 42.7368 27.4737 41.6947 26.7474C40.6526 26.0211 39.3579 25.6579 37.8105 25.6579C36.2632 25.6579 34.9368 26.0368 33.8316 26.7947C32.7263 27.521 31.8895 28.6105 31.3211 30.0632C30.7526 31.4842 30.4684 33.2526 30.4684 35.3684C30.4684 37.5789 30.7526 39.4263 31.3211 40.9105C31.9211 42.3947 32.7895 43.5 33.9263 44.2263C35.0947 44.9211 36.5316 45.2684 38.2368 45.2684C39.1526 45.2684 39.9895 45.1579 40.7474 44.9368C41.5053 44.7158 42.1684 44.4 42.7368 43.9895C43.3053 43.5474 43.7474 43.0105 44.0632 42.3789C44.3789 41.7158 44.5368 40.9421 44.5368 40.0579V39.5842H37.3842V34.1368H51.4526V51H45.9105L45.2947 43.6579L46.6211 44.7947C45.9579 46.9421 44.7579 48.6 43.0211 49.7684C41.3158 50.9053 39.1053 51.4737 36.3895 51.4737Z" fill="white"/>
<defs>
<linearGradient id="paint0_linear_2320_886" x1="19.1829" y1="51.778" x2="93.5781" y2="35.7665" gradientUnits="userSpaceOnUse">
<stop stop-color="#A53DFF"/>
<stop offset="1" stop-color="#E3C3FF"/>
</linearGradient>
</defs>
</svg>
